{
  "accessors": [
    {
      "name": "object0_0_positions",
      "componentType": 5126,
      "count": 12848,
      "min": [
        -15.298199653625488,
        -18.302499771118164,
        -17.6914005279541
      ],
      "max": [
        15.298199653625488,
        19.857999801635742,
        17.730100631713867
      ],
      "type": "VEC3",
      "bufferView": 0,
      "byteOffset": 0
    },
    {
      "name": "object0_0_normals",
      "componentType": 5126,
      "count": 12848,
      "min": [
        -0.9988875985145569,
        -0.9999066591262817,
        -0.9998995065689087
      ],
      "max": [
        0.9988875985145569,
        0.9997640252113342,
        0.9999556541442871
      ],
      "type": "VEC3",
      "bufferView": 1,
      "byteOffset": 0
    },
    {
      "name": "object0_0_texcoords",
      "componentType": 5126,
      "count": 12848,
      "min": [
        0,
        0.1681929975748062
      ],
      "max": [
        0.7336559891700745,
        1
      ],
      "type": "VEC2",
      "bufferView": 2,
      "byteOffset": 0
    },
    {
      "name": "object0_0_indices",
      "componentType": 5123,
      "count": 19086,
      "min": [
        0
      ],
      "max": [
        12847
      ],
      "type": "SCALAR",
      "bufferView": 3,
      "byteOffset": 0
    }
  ],
  "asset": {
    "generator": "obj2gltf",
    "version": "2.0"
  },
  "buffers": [
    {
      "name": "mhead",
      "byteLength": 449308,
      "uri": "data:application/octet-stream;base64,"
    }
  ],
  "bufferViews": [
    {
      "name": "bufferView_0",
      "buffer": 0,
      "byteLength": 154176,
      "byteOffset": 0,
      "byteStride": 12,
      "target": 34962
    },
    {
      "name": "bufferView_1",
      "buffer": 0,
      "byteLength": 154176,
      "byteOffset": 154176,
      "byteStride": 12,
      "target": 34962
    },
    {
      "name": "bufferView_2",
      "buffer": 0,
      "byteLength": 102784,
      "byteOffset": 308352,
      "byteStride": 8,
      "target": 34962
    },
    {
      "name": "bufferView_3",
      "buffer": 0,
      "byteLength": 38172,
      "byteOffset": 411136,
      "target": 34963
    }
  ],
  "materials": [
    {
      "name": "Material0",
      "pbrMetallicRoughness": {
        "baseColorFactor": [
          0.5,
          0.5,
          0.5,
          1
        ],
        "metallicFactor": 0,
        "roughnessFactor": 1
      },
      "emissiveFactor": [
        0,
        0,
        0
      ],
      "alphaMode": "OPAQUE",
      "doubleSided": false
    }
  ],
  "meshes": [
    {
      "name": "object0",
      "primitives": [
        {
          "attributes": {
            "POSITION": 0,
            "NORMAL": 1,
            "TEXCOORD_0": 2
          },
          "indices": 3,
          "material": 0,
          "mode": 4
        }
      ]
    }
  ],
  "nodes": [
    {
      "name": "male head.obj",
      "mesh": 0
    }
  ],
  "scene": 0,
  "scenes": [
    {
      "nodes": [
        0
      ]
    }
  ]
}
